:SAMPLES-PER-SECOND 30
:FULLY-SPECIFIED
:DEGREES
117
root  -67.2657 40.4679 -6.47833 -153.314 -82.0857 144.456
RightUpLeg  -10.5072 -8.24198 -7.39123
RightLeg  5.27441 0.827761 2.24486
RightFoot  7.98096 -0.389485 2.59344
RightToes  0.00048216 0.542163 -0.142577
Spine  20.6466 -2.3476 -2.88485
Spine1  -0.18845 -3.13435 0.931132
HEad  -14.4265 -8.59904 0.337127
LeftShoulder1  7.96569 -11.007 -47.9046
LeftArm  -9.83974 13.0847 -30.2352
LeftForeArm  35.3429 -37.3663 -6.40426
LeftHand  -0.25398 0.0180481 5.50724
RightShoulder  4.88324 8.26368 35.5244
RightArm  -0.947484 -20.5149 35.2429
RightForeArm  -3.66274 31.899 7.2282
RightHand  -0.907994 0.473451 -17.9833
LeftUpLeg  -0.104253 15.2281 -2.16614
LeftLeg  18.368 2.2113 0.397752
LeftFoot  -9.67955 0.0509787 0.357629
LeftToes  1.06246e-005 4.65856e-005 -8.18504e-006
118
root  -68.1522 40.2913 -6.55836 -162.769 -83.5205 153.323
RightUpLeg  -10.5919 -9.73857 -6.37167
RightLeg  9.35496 1.48822 2.91138
RightFoot  8.77649 -0.302448 2.03852
RightToes  0.00048216 0.542163 -0.142577
Spine  20.0662 -3.02557 3.51329
Spine1  0.231834 -2.17686 -2.18778
HEad  -13.8462 -12.5944 0.273584
LeftShoulder1  8.17068 -11.3539 -47.9917
LeftArm  -11.1361 13.777 -29.9216
LeftForeArm  33.9928 -36.7398 -6.31483
LeftHand  -0.25398 0.0180481 5.50724
RightShoulder  5.09195 8.60277 36.0773
RightArm  0.641896 -21.37 34.7354
RightForeArm  -5.67004 28.4571 6.45531
RightHand  -0.953035 0.988969 -17.3942
LeftUpLeg  -1.27619 14.4953 -0.349084
LeftLeg  24.7162 1.96664 1.42205
LeftFoot  -11.3037 0.0710027 -1.33884
LeftToes  1.06246e-005 4.65856e-005 -8.18504e-006
119
root  -68.9329 40.1312 -6.7025 -179.299 -85.1201 169.718
RightUpLeg  -10.7109 -11.6226 -4.76017
RightLeg  13.0472 1.54828 3.1982
RightFoot  6.14635 -0.222484 1.71653
RightToes  0.00048216 0.542163 -0.142577
Spine  18.9707 -3.19137 8.20293
Spine1  1.64855 -1.53077 -2.47232
HEad  -14.6121 -16.0686 -1.28086
LeftShoulder1  8.41675 -11.5135 -48.922
LeftArm  -12.1593 13.8785 -29.4486
LeftForeArm  32.9066 -35.8632 -6.14558
LeftHand  -0.25398 0.0180481 5.50724
RightShoulder  5.15405 8.78669 35.9553
RightArm  3.52281 -20.7718 34.0308
RightForeArm  -7.21628 24.9759 5.72054
RightHand  -0.955171 1.26427 -16.7461
LeftUpLeg  -4.8575 13.9237 2.35516
LeftLeg  33.5966 1.74077 1.5886
LeftFoot  -9.24993 0.138459 -3.99978
LeftToes  1.06246e-005 4.65856e-005 -8.18504e-006
120
root  -69.6043 40.0559 -6.94324 159.942 -86.467 -169.628
RightUpLeg  -10.1383 -12.5318 -3.44848
RightLeg  15.2658 0.905859 3.09007
RightFoot  3.44566 -0.130492 1.18556
RightToes  0.00048216 0.542163 -0.142577
Spine  18.159 -2.8347 9.80031
Spine1  3.17005 -1.44787 0.200422
HEad  -15.827 -18.5729 -2.56282
LeftShoulder1  8.58725 -11.39 -50.3182
LeftArm  -12.8512 13.8241 -28.7832
LeftForeArm  32.6689 -35.0875 -5.95773
LeftHand  -0.25398 0.0180481 5.50724
RightShoulder  5.13331 8.82596 35.6596
RightArm  5.59035 -19.2937 33.0919
RightForeArm  -7.31749 22.0656 5.35049
RightHand  -0.991476 1.53082 -16.7296
LeftUpLeg  -9.16631 14.2426 4.67618
LeftLeg  42.261 1.54665 1.9204
LeftFoot  -5.73304 0.35875 -6.72627
LeftToes  1.06246e-005 4.65856e-005 -8.18504e-006
121
root  -70.2123 40.0807 -7.20605 135.274 -87.4942 -145.169
RightUpLeg  -9.08102 -12.3962 -2.88317
RightLeg  16.2982 -0.517544 2.90348
RightFoot  2.01846 -0.0505036 0.5525
RightToes  0.00048216 0.542163 -0.142577
Spine  18.3782 -2.60797 10.1925
Spine1  2.60992 -1.49076 2.19005
HEad  -15.9672 -20.3781 -2.55238
LeftShoulder1  8.56415 -11.4061 -50.1321
LeftArm  -13.7815 15.553 -28.6271
LeftForeArm  33.023 -34.4001 -5.76224
LeftHand  -0.25398 0.0180481 5.50724
RightShoulder  5.31042 8.99186 36.5017
RightArm  4.38348 -18.8467 31.9803
RightForeArm  -5.65688 20.0124 5.62207
RightHand  -1.0661 1.87888 -17.1414
LeftUpLeg  -12.9062 14.3666 5.84943
LeftLeg  48.9528 2.36773 3.3598
LeftFoot  -4.79161 0.449306 -7.34784
LeftToes  1.06246e-005 4.65856e-005 -8.18504e-006
122
root  -70.8128 40.2165 -7.42525 111.336 -88.1374 -121.293
RightUpLeg  -7.74839 -12.0571 -2.99612
RightLeg  16.2191 -1.9221 2.80106
RightFoot  1.0509 -0.040761 0.446526
RightToes  0.00048216 0.542163 -0.142577
Spine  18.5597 -2.57074 10.3795
Spine1  1.4315 -1.43143 2.48225
HEad  -15.5822 -21.5411 -1.73111
LeftShoulder1  8.49862 -11.5697 -49.2127
LeftArm  -14.9965 18.2186 -28.3493
LeftForeArm  33.1687 -33.5426 -5.53988
LeftHand  -0.25398 0.0180481 5.50724
RightShoulder  5.4836 9.07097 37.5815
RightArm  1.83795 -18.9862 31.6289
RightForeArm  -5.21389 18.7903 5.88948
RightHand  -1.14581 2.25407 -17.5294
LeftUpLeg  -15.5116 14.6575 5.89948
LeftLeg  52.4395 3.53975 5.37999
LeftFoot  -6.50353 0.277598 -5.56822
LeftToes  1.06246e-005 4.65856e-005 -8.18504e-006
123
root  -71.4166 40.4119 -7.59319 98.6121 -88.5919 -108.327
RightUpLeg  -6.37595 -11.4726 -3.40707
RightLeg  15.313 -2.90609 2.80256
RightFoot  0.100174 -0.0788434 0.792495
RightToes  0.00048216 0.542163 -0.142577
Spine  17.6342 -2.40257 10.2823
Spine1  1.69333 -1.34904 2.3325
HEad  -15.7007 -22.1794 -1.16668
LeftShoulder1  8.45537 -11.5767 -48.9399
LeftArm  -16.0589 19.9457 -27.5401
LeftForeArm  32.574 -31.9823 -5.19505
LeftHand  -0.25398 0.0180481 5.50724
RightShoulder  5.41854 8.91542 37.6011
RightArm  0.0354382 -18.6132 32.4844
RightForeArm  -6.48803 18.0969 6.12136
RightHand  -1.23249 2.67744 -17.8776
LeftUpLeg  -16.7174 15.3736 5.43864
LeftLeg  52.0348 4.53794 6.66485
LeftFoot  -8.65028 0.136848 -3.68477
LeftToes  1.06246e-005 4.65856e-005 -8.18504e-006
124
root  -72.0073 40.6114 -7.7353 101.812 -89.0802 -111.153
RightUpLeg  -5.13442 -10.556 -3.82583
RightLeg  14.1182 -3.59596 2.84351
RightFoot  -0.334584 -0.0791412 0.797299
RightToes  0.00048216 0.542163 -0.142577
Spine  16.3523 -2.11049 10.1725
Spine1  2.06359 -1.06318 1.64161
HEad  -15.4708 -22.7661 -0.928699
LeftShoulder1  8.26098 -11.4514 -48.2092
LeftArm  -16.5776 21.2579 -26.9633
LeftForeArm  31.2011 -29.4698 -4.68429
LeftHand  -0.25398 0.0180481 5.50724
RightShoulder  5.39123 8.87363 37.5304
RightArm  -0.278294 -18.6137 33.4874
RightForeArm  -7.4314 17.9203 6.23624
RightHand  -1.30035 3.08712 -17.9682
LeftUpLeg  -16.1922 15.7271 4.94264
LeftLeg  47.672 5.25014 6.5711
LeftFoot  -10.7563 0.079405 -3.45428
LeftToes  1.06246e-005 4.65856e-005 -8.18504e-006
125
root  -72.5848 40.7784 -7.86355 121.307 -89.3836 -130.388
RightUpLeg  -4.01793 -9.86317 -4.12802
RightLeg  13.1418 -4.00985 2.96679
RightFoot  -0.347442 -0.0203492 0.186101
RightToes  0.00048216 0.542163 -0.142577
Spine  15.1789 -1.82759 10.0479
Spine1  2.30549 -0.754771 0.934831
HEad  -15.0219 -23.2451 -0.856957
LeftShoulder1  7.90268 -11.1318 -47.107
LeftArm  -16.5284 22.3566 -26.3856
LeftForeArm  29.486 -26.561 -4.12648
LeftHand  -0.25398 0.0180481 5.50724
RightShoulder  5.39719 8.85038 37.6562
RightArm  -0.140291 -18.7801 34.1294
RightForeArm  -6.2361 17.9924 6.15545
RightHand  -1.30284 3.35115 -17.4838
LeftUpLeg  -13.8751 14.9532 4.65992
LeftLeg  39.7728 5.50207 5.28578
LeftFoot  -12.9884 0.01879 -4.17375
LeftToes  1.06246e-005 4.65856e-005 -8.18504e-006
126
root  -73.1658 40.8921 -7.96543 145.649 -89.0247 -154.605
RightUpLeg  -2.91633 -9.5975 -4.12546
RightLeg  12.4146 -3.93479 3.2576
RightFoot  -0.543136 0.0435429 -0.500159
RightToes  0.00048216 0.542163 -0.142577
Spine  13.9415 -1.66192 10.2724
Spine1  2.69353 -0.482028 -0.0247412
HEad  -14.5617 -23.3142 -0.771321
LeftShoulder1  7.39783 -10.621 -45.6497
LeftArm  -16.0719 23.4228 -25.4241
LeftForeArm  28.4242 -23.6492 -3.59023
LeftHand  -0.25398 0.0180481 5.50724
RightShoulder  5.43524 8.82606 38.0363
RightArm  -1.40973 -18.8593 34.1913
RightForeArm  -4.01729 17.6809 6.04619
RightHand  -1.31622 3.70797 -17.0013
LeftUpLeg  -10.3742 13.6284 4.81311
LeftLeg  29.6866 4.85491 3.36183
LeftFoot  -13.059 0.0140178 -4.32258
LeftToes  1.06246e-005 4.65856e-005 -8.18504e-006
127
root  -73.7473 40.9856 -8.03232 150.313 -87.993 -159.105
RightUpLeg  -1.75652 -9.35841 -3.7046
RightLeg  11.459 -3.3494 3.55291
RightFoot  -0.797925 0.0768177 -0.890106
RightToes  0.00048216 0.542163 -0.142577
Spine  12.3131 -1.54286 10.6266
Spine1  3.43074 -0.272184 -1.12588
HEad  -14.0361 -22.7221 -0.814337
LeftShoulder1  6.70212 -9.83501 -43.7018
LeftArm  -15.8708 24.3375 -24.219
LeftForeArm  27.9805 -20.3029 -3.15153
LeftHand  -0.25398 0.0180481 5.50724
RightShoulder  5.4562 8.8031 38.2797
RightArm  -4.92361 -18.6691 33.6187
RightForeArm  -3.03012 16.3892 6.119
RightHand  -1.46016 4.46703 -17.4108
LeftUpLeg  -6.7931 12.7181 5.30628
LeftLeg  20.1246 3.72724 1.77209
LeftFoot  -8.82102 0.116018 -3.26257
LeftToes  1.06246e-005 4.65856e-005 -8.18504e-006
128
root  -74.2906 41.0988 -8.09178 152.624 -87.1101 -161.052
RightUpLeg  -0.82908 -8.9629 -3.19147
RightLeg  10.3766 -2.8263 3.52101
RightFoot  -0.810015 0.110618 -1.25829
RightToes  0.00048216 0.542163 -0.142577
Spine  10.6015 -1.41497 9.93039
Spine1  3.98262 -0.356751 -1.34372
HEad  -13.1821 -21.5923 -1.02631
LeftShoulder1  5.79577 -8.70158 -41.1273
LeftArm  -16.4708 24.9921 -23.1985
LeftForeArm  26.4395 -16.0645 -2.83227
LeftHand  -0.25398 0.0180481 5.50724
RightShoulder  5.33958 8.63659 37.9389
RightArm  -9.55531 -18.3149 32.317
RightForeArm  -3.89218 14.4573 6.19525
RightHand  -1.65276 5.19152 -18.3598
LeftUpLeg  -4.25046 11.2856 5.67426
LeftLeg  13.8735 4.15038 0.861433
LeftFoot  -2.80187 0.118188 -1.35671
LeftToes  1.06246e-005 4.65856e-005 -8.18504e-006
129
root  -74.7603 41.2311 -8.18608 157.316 -87.2271 -165.167
RightUpLeg  -0.387028 -8.59996 -3.05876
RightLeg  9.64396 -3.07716 3.17351
RightFoot  -0.832204 0.172883 -1.94206
RightToes  0.00048216 0.542163 -0.142577
Spine  9.39481 -1.33882 7.42434
Spine1  3.63844 -0.881517 -0.010496
HEad  -12.0039 -20.3651 -1.05169
LeftShoulder1  4.81461 -7.38892 -38.0019
LeftArm  -17.1416 25.4537 -22.1823
LeftForeArm  22.7228 -11.5976 -2.41314
LeftHand  -0.25398 0.0180481 5.50724
RightShoulder  5.0244 8.18743 36.964
RightArm  -13.2432 -18.1875 30.1243
RightForeArm  -5.71081 12.8065 6.05573
RightHand  -1.71248 5.2861 -18.8364
LeftUpLeg  -3.00424 8.6048 5.59211
LeftLeg  11.1552 6.49391 0.240948
LeftFoot  0.468197 0.00309241 -0.0113151
LeftToes  1.06246e-005 4.65856e-005 -8.18504e-006
